<svg width="1322" height="104" viewBox="0 0 1322 104" fill="none" xmlns="http://www.w3.org/2000/svg">
<g clip-path="url(#clip0_964_18523)">
<path d="M148.696 61L145.456 56.32H145.264H141.88V61H137.992V44.2H145.264C146.752 44.2 148.04 44.448 149.128 44.944C150.232 45.44 151.08 46.144 151.672 47.056C152.264 47.968 152.56 49.048 152.56 50.296C152.56 51.544 152.256 52.624 151.648 53.536C151.056 54.432 150.208 55.12 149.104 55.6L152.872 61H148.696ZM148.624 50.296C148.624 49.352 148.32 48.632 147.712 48.136C147.104 47.624 146.216 47.368 145.048 47.368H141.88V53.224H145.048C146.216 53.224 147.104 52.968 147.712 52.456C148.32 51.944 148.624 51.224 148.624 50.296ZM168.124 54.592C168.124 54.64 168.1 54.976 168.052 55.6H158.284C158.46 56.4 158.876 57.032 159.532 57.496C160.188 57.96 161.004 58.192 161.98 58.192C162.652 58.192 163.244 58.096 163.756 57.904C164.284 57.696 164.772 57.376 165.22 56.944L167.212 59.104C165.996 60.496 164.22 61.192 161.884 61.192C160.428 61.192 159.14 60.912 158.02 60.352C156.9 59.776 156.036 58.984 155.428 57.976C154.82 56.968 154.516 55.824 154.516 54.544C154.516 53.28 154.812 52.144 155.404 51.136C156.012 50.112 156.836 49.32 157.876 48.76C158.932 48.184 160.108 47.896 161.404 47.896C162.668 47.896 163.812 48.168 164.836 48.712C165.86 49.256 166.66 50.04 167.236 51.064C167.828 52.072 168.124 53.248 168.124 54.592ZM161.428 50.728C160.58 50.728 159.868 50.968 159.292 51.448C158.716 51.928 158.364 52.584 158.236 53.416H164.596C164.468 52.6 164.116 51.952 163.54 51.472C162.964 50.976 162.26 50.728 161.428 50.728ZM170.717 43.192H174.461V61H170.717V43.192ZM190.852 48.088L185.404 61H181.54L176.116 48.088H179.98L183.556 56.872L187.252 48.088H190.852ZM192.48 48.088H196.224V61H192.48V48.088ZM194.352 46.288C193.664 46.288 193.104 46.088 192.672 45.688C192.24 45.288 192.024 44.792 192.024 44.2C192.024 43.608 192.24 43.112 192.672 42.712C193.104 42.312 193.664 42.112 194.352 42.112C195.04 42.112 195.6 42.304 196.032 42.688C196.464 43.072 196.68 43.552 196.68 44.128C196.68 44.752 196.464 45.272 196.032 45.688C195.6 46.088 195.04 46.288 194.352 46.288ZM204.142 61.192C203.07 61.192 202.022 61.064 200.998 60.808C199.974 60.536 199.158 60.2 198.55 59.8L199.798 57.112C200.374 57.48 201.07 57.784 201.886 58.024C202.702 58.248 203.502 58.36 204.286 58.36C205.87 58.36 206.662 57.968 206.662 57.184C206.662 56.816 206.446 56.552 206.014 56.392C205.582 56.232 204.918 56.096 204.022 55.984C202.966 55.824 202.094 55.64 201.406 55.432C200.718 55.224 200.118 54.856 199.606 54.328C199.11 53.8 198.862 53.048 198.862 52.072C198.862 51.256 199.094 50.536 199.558 49.912C200.038 49.272 200.726 48.776 201.622 48.424C202.534 48.072 203.606 47.896 204.838 47.896C205.75 47.896 206.654 48 207.55 48.208C208.462 48.4 209.214 48.672 209.806 49.024L208.558 51.688C207.422 51.048 206.182 50.728 204.838 50.728C204.038 50.728 203.438 50.84 203.038 51.064C202.638 51.288 202.438 51.576 202.438 51.928C202.438 52.328 202.654 52.608 203.086 52.768C203.518 52.928 204.206 53.08 205.15 53.224C206.206 53.4 207.07 53.592 207.742 53.8C208.414 53.992 208.998 54.352 209.494 54.88C209.99 55.408 210.238 56.144 210.238 57.088C210.238 57.888 209.998 58.6 209.518 59.224C209.038 59.848 208.334 60.336 207.406 60.688C206.494 61.024 205.406 61.192 204.142 61.192ZM225.296 54.592C225.296 54.64 225.272 54.976 225.224 55.6H215.456C215.632 56.4 216.048 57.032 216.704 57.496C217.36 57.96 218.176 58.192 219.152 58.192C219.824 58.192 220.416 58.096 220.928 57.904C221.456 57.696 221.944 57.376 222.392 56.944L224.384 59.104C223.168 60.496 221.392 61.192 219.056 61.192C217.6 61.192 216.312 60.912 215.192 60.352C214.072 59.776 213.208 58.984 212.6 57.976C211.992 56.968 211.688 55.824 211.688 54.544C211.688 53.28 211.984 52.144 212.576 51.136C213.184 50.112 214.008 49.32 215.048 48.76C216.104 48.184 217.28 47.896 218.576 47.896C219.84 47.896 220.984 48.168 222.008 48.712C223.032 49.256 223.832 50.04 224.408 51.064C225 52.072 225.296 53.248 225.296 54.592ZM218.6 50.728C217.752 50.728 217.04 50.968 216.464 51.448C215.888 51.928 215.536 52.584 215.408 53.416H221.768C221.64 52.6 221.288 51.952 220.712 51.472C220.136 50.976 219.432 50.728 218.6 50.728Z" fill="#252B42"/>
</g>
<path d="M369.287 47.2V57H367.467V52.8H362.399V57H360.579V47.2H362.399V51.246H367.467V47.2H369.287ZM375.305 57.098C374.549 57.098 373.868 56.9347 373.261 56.608C372.655 56.2813 372.179 55.8287 371.833 55.25C371.497 54.662 371.329 53.9993 371.329 53.262C371.329 52.5247 371.497 51.8667 371.833 51.288C372.179 50.7093 372.655 50.2567 373.261 49.93C373.868 49.6033 374.549 49.44 375.305 49.44C376.071 49.44 376.757 49.6033 377.363 49.93C377.97 50.2567 378.441 50.7093 378.777 51.288C379.123 51.8667 379.295 52.5247 379.295 53.262C379.295 53.9993 379.123 54.662 378.777 55.25C378.441 55.8287 377.97 56.2813 377.363 56.608C376.757 56.9347 376.071 57.098 375.305 57.098ZM375.305 55.6C375.949 55.6 376.481 55.3853 376.901 54.956C377.321 54.5267 377.531 53.962 377.531 53.262C377.531 52.562 377.321 51.9973 376.901 51.568C376.481 51.1387 375.949 50.924 375.305 50.924C374.661 50.924 374.129 51.1387 373.709 51.568C373.299 51.9973 373.093 52.562 373.093 53.262C373.093 53.962 373.299 54.5267 373.709 54.956C374.129 55.3853 374.661 55.6 375.305 55.6ZM390.605 49.44C391.548 49.44 392.294 49.7153 392.845 50.266C393.396 50.8073 393.671 51.624 393.671 52.716V57H391.921V52.94C391.921 52.2867 391.776 51.7967 391.487 51.47C391.198 51.134 390.782 50.966 390.241 50.966C389.653 50.966 389.182 51.162 388.827 51.554C388.472 51.9367 388.295 52.4873 388.295 53.206V57H386.545V52.94C386.545 52.2867 386.4 51.7967 386.111 51.47C385.822 51.134 385.406 50.966 384.865 50.966C384.268 50.966 383.792 51.1573 383.437 51.54C383.092 51.9227 382.919 52.478 382.919 53.206V57H381.169V49.524H382.835V50.476C383.115 50.14 383.465 49.8833 383.885 49.706C384.305 49.5287 384.772 49.44 385.285 49.44C385.845 49.44 386.34 49.5473 386.769 49.762C387.208 49.9673 387.553 50.2753 387.805 50.686C388.113 50.294 388.51 49.9907 388.995 49.776C389.48 49.552 390.017 49.44 390.605 49.44ZM403.204 53.304C403.204 53.4253 403.194 53.598 403.176 53.822H397.31C397.412 54.3727 397.678 54.8113 398.108 55.138C398.546 55.4553 399.088 55.614 399.732 55.614C400.553 55.614 401.23 55.3433 401.762 54.802L402.7 55.88C402.364 56.2813 401.939 56.5847 401.426 56.79C400.912 56.9953 400.334 57.098 399.69 57.098C398.868 57.098 398.145 56.9347 397.52 56.608C396.894 56.2813 396.409 55.8287 396.064 55.25C395.728 54.662 395.56 53.9993 395.56 53.262C395.56 52.534 395.723 51.8807 396.05 51.302C396.386 50.714 396.848 50.2567 397.436 49.93C398.024 49.6033 398.686 49.44 399.424 49.44C400.152 49.44 400.8 49.6033 401.37 49.93C401.948 50.2473 402.396 50.7 402.714 51.288C403.04 51.8667 403.204 52.5387 403.204 53.304ZM399.424 50.84C398.864 50.84 398.388 51.008 397.996 51.344C397.613 51.6707 397.38 52.1093 397.296 52.66H401.538C401.463 52.1187 401.234 51.68 400.852 51.344C400.469 51.008 399.993 50.84 399.424 50.84Z" fill="#737373"/>
<path d="M430.736 47.2C431.586 47.2 432.323 47.34 432.948 47.62C433.583 47.9 434.068 48.3013 434.404 48.824C434.74 49.3467 434.908 49.9673 434.908 50.686C434.908 51.3953 434.74 52.016 434.404 52.548C434.068 53.0707 433.583 53.472 432.948 53.752C432.323 54.032 431.586 54.172 430.736 54.172H428.524V57H426.704V47.2H430.736ZM430.652 52.632C431.446 52.632 432.048 52.464 432.458 52.128C432.869 51.792 433.074 51.3113 433.074 50.686C433.074 50.0607 432.869 49.58 432.458 49.244C432.048 48.908 431.446 48.74 430.652 48.74H428.524V52.632H430.652ZM438.355 50.616C438.859 49.832 439.746 49.44 441.015 49.44V51.106C440.866 51.078 440.731 51.064 440.609 51.064C439.928 51.064 439.396 51.2647 439.013 51.666C438.631 52.058 438.439 52.6273 438.439 53.374V57H436.689V49.524H438.355V50.616ZM445.992 57.098C445.236 57.098 444.554 56.9347 443.948 56.608C443.341 56.2813 442.865 55.8287 442.52 55.25C442.184 54.662 442.016 53.9993 442.016 53.262C442.016 52.5247 442.184 51.8667 442.52 51.288C442.865 50.7093 443.341 50.2567 443.948 49.93C444.554 49.6033 445.236 49.44 445.992 49.44C446.757 49.44 447.443 49.6033 448.05 49.93C448.656 50.2567 449.128 50.7093 449.464 51.288C449.809 51.8667 449.982 52.5247 449.982 53.262C449.982 53.9993 449.809 54.662 449.464 55.25C449.128 55.8287 448.656 56.2813 448.05 56.608C447.443 56.9347 446.757 57.098 445.992 57.098ZM445.992 55.6C446.636 55.6 447.168 55.3853 447.588 54.956C448.008 54.5267 448.218 53.962 448.218 53.262C448.218 52.562 448.008 51.9973 447.588 51.568C447.168 51.1387 446.636 50.924 445.992 50.924C445.348 50.924 444.816 51.1387 444.396 51.568C443.985 51.9973 443.78 52.562 443.78 53.262C443.78 53.962 443.985 54.5267 444.396 54.956C444.816 55.3853 445.348 55.6 445.992 55.6ZM459.177 46.612V57H457.497V56.034C457.208 56.3887 456.848 56.6547 456.419 56.832C455.999 57.0093 455.532 57.098 455.019 57.098C454.3 57.098 453.652 56.9393 453.073 56.622C452.504 56.3047 452.056 55.8567 451.729 55.278C451.402 54.69 451.239 54.018 451.239 53.262C451.239 52.506 451.402 51.8387 451.729 51.26C452.056 50.6813 452.504 50.2333 453.073 49.916C453.652 49.5987 454.3 49.44 455.019 49.44C455.514 49.44 455.966 49.524 456.377 49.692C456.788 49.86 457.138 50.112 457.427 50.448V46.612H459.177ZM455.229 55.6C455.649 55.6 456.027 55.5067 456.363 55.32C456.699 55.124 456.965 54.8487 457.161 54.494C457.357 54.1393 457.455 53.7287 457.455 53.262C457.455 52.7953 457.357 52.3847 457.161 52.03C456.965 51.6753 456.699 51.4047 456.363 51.218C456.027 51.022 455.649 50.924 455.229 50.924C454.809 50.924 454.431 51.022 454.095 51.218C453.759 51.4047 453.493 51.6753 453.297 52.03C453.101 52.3847 453.003 52.7953 453.003 53.262C453.003 53.7287 453.101 54.1393 453.297 54.494C453.493 54.8487 453.759 55.124 454.095 55.32C454.431 55.5067 454.809 55.6 455.229 55.6ZM468.904 49.524V57H467.238V56.048C466.958 56.384 466.608 56.6453 466.188 56.832C465.768 57.0093 465.316 57.098 464.83 57.098C463.832 57.098 463.043 56.8227 462.464 56.272C461.895 55.712 461.61 54.886 461.61 53.794V49.524H463.36V53.556C463.36 54.228 463.51 54.732 463.808 55.068C464.116 55.3947 464.55 55.558 465.11 55.558C465.736 55.558 466.23 55.3667 466.594 54.984C466.968 54.592 467.154 54.032 467.154 53.304V49.524H468.904ZM474.826 57.098C474.051 57.098 473.356 56.9347 472.74 56.608C472.124 56.2813 471.643 55.8287 471.298 55.25C470.952 54.662 470.78 53.9993 470.78 53.262C470.78 52.5247 470.952 51.8667 471.298 51.288C471.643 50.7093 472.119 50.2567 472.726 49.93C473.342 49.6033 474.042 49.44 474.826 49.44C475.563 49.44 476.207 49.5893 476.758 49.888C477.318 50.1867 477.738 50.616 478.018 51.176L476.674 51.96C476.459 51.6147 476.188 51.358 475.862 51.19C475.544 51.0127 475.194 50.924 474.812 50.924C474.158 50.924 473.617 51.1387 473.188 51.568C472.758 51.988 472.544 52.5527 472.544 53.262C472.544 53.9713 472.754 54.5407 473.174 54.97C473.603 55.39 474.149 55.6 474.812 55.6C475.194 55.6 475.544 55.516 475.862 55.348C476.188 55.1707 476.459 54.9093 476.674 54.564L478.018 55.348C477.728 55.908 477.304 56.342 476.744 56.65C476.193 56.9487 475.554 57.098 474.826 57.098ZM484.32 56.594C484.115 56.762 483.863 56.888 483.564 56.972C483.275 57.056 482.967 57.098 482.64 57.098C481.819 57.098 481.184 56.8833 480.736 56.454C480.288 56.0247 480.064 55.3993 480.064 54.578V50.98H478.832V49.58H480.064V47.872H481.814V49.58H483.816V50.98H481.814V54.536C481.814 54.9 481.903 55.18 482.08 55.376C482.257 55.5627 482.514 55.656 482.85 55.656C483.242 55.656 483.569 55.5533 483.83 55.348L484.32 56.594Z" fill="#737373"/>
<path d="M511.565 47.2H507.533V57H509.353V54.172H511.565C514.141 54.172 515.737 52.842 515.737 50.686C515.737 48.516 514.141 47.2 511.565 47.2ZM511.481 52.632H509.353V48.74H511.481C513.077 48.74 513.903 49.454 513.903 50.686C513.903 51.918 513.077 52.632 511.481 52.632ZM519.185 50.616V49.524H517.519V57H519.269V53.374C519.269 51.848 520.109 51.064 521.439 51.064C521.565 51.064 521.691 51.078 521.845 51.106V49.44C520.599 49.44 519.689 49.832 519.185 50.616ZM524.411 48.292C525.069 48.292 525.531 47.816 525.531 47.2C525.531 46.626 525.055 46.192 524.411 46.192C523.767 46.192 523.291 46.654 523.291 47.242C523.291 47.83 523.767 48.292 524.411 48.292ZM523.529 57H525.279V49.524H523.529V57ZM531.206 57.098C532.662 57.098 533.824 56.468 534.398 55.348L533.054 54.564C532.606 55.278 531.934 55.6 531.192 55.6C529.904 55.6 528.924 54.718 528.924 53.262C528.924 51.82 529.904 50.924 531.192 50.924C531.934 50.924 532.606 51.246 533.054 51.96L534.398 51.176C533.824 50.042 532.662 49.44 531.206 49.44C528.84 49.44 527.16 51.022 527.16 53.262C527.16 55.502 528.84 57.098 531.206 57.098ZM536.993 48.292C537.651 48.292 538.113 47.816 538.113 47.2C538.113 46.626 537.637 46.192 536.993 46.192C536.349 46.192 535.873 46.654 535.873 47.242C535.873 47.83 536.349 48.292 536.993 48.292ZM536.111 57H537.861V49.524H536.111V57ZM544.6 49.44C543.508 49.44 542.598 49.804 542.024 50.49V49.524H540.358V57H542.108V53.22C542.108 51.722 542.948 50.966 544.194 50.966C545.314 50.966 545.972 51.61 545.972 52.94V57H547.722V52.716C547.722 50.462 546.392 49.44 544.6 49.44ZM555.964 49.524V50.518C555.348 49.776 554.424 49.44 553.374 49.44C551.232 49.44 549.594 50.868 549.594 53.038C549.594 55.208 551.232 56.664 553.374 56.664C554.382 56.664 555.264 56.342 555.88 55.67V56.062C555.88 57.574 555.152 58.33 553.5 58.33C552.464 58.33 551.4 57.98 550.742 57.434L549.958 58.75C550.812 59.45 552.198 59.814 553.598 59.814C556.216 59.814 557.63 58.582 557.63 55.866V49.524H555.964ZM553.64 55.18C552.31 55.18 551.358 54.312 551.358 53.038C551.358 51.778 552.31 50.924 553.64 50.924C554.956 50.924 555.908 51.778 555.908 53.038C555.908 54.312 554.956 55.18 553.64 55.18Z" fill="#737373"/>
<path d="M586.164 57.14C585.175 57.14 584.279 56.9253 583.476 56.496C582.683 56.0573 582.057 55.4553 581.6 54.69C581.152 53.9247 580.928 53.0613 580.928 52.1C580.928 51.1387 581.157 50.2753 581.614 49.51C582.071 48.7447 582.697 48.1473 583.49 47.718C584.293 47.2793 585.189 47.06 586.178 47.06C586.981 47.06 587.713 47.2 588.376 47.48C589.039 47.76 589.599 48.166 590.056 48.698L588.88 49.804C588.171 49.0387 587.298 48.656 586.262 48.656C585.59 48.656 584.988 48.8053 584.456 49.104C583.924 49.3933 583.509 49.7993 583.21 50.322C582.911 50.8447 582.762 51.4373 582.762 52.1C582.762 52.7627 582.911 53.3553 583.21 53.878C583.509 54.4007 583.924 54.8113 584.456 55.11C584.988 55.3993 585.59 55.544 586.262 55.544C587.298 55.544 588.171 55.1567 588.88 54.382L590.056 55.502C589.599 56.034 589.034 56.44 588.362 56.72C587.699 57 586.967 57.14 586.164 57.14ZM594.919 57.098C594.163 57.098 593.481 56.9347 592.875 56.608C592.268 56.2813 591.792 55.8287 591.447 55.25C591.111 54.662 590.943 53.9993 590.943 53.262C590.943 52.5247 591.111 51.8667 591.447 51.288C591.792 50.7093 592.268 50.2567 592.875 49.93C593.481 49.6033 594.163 49.44 594.919 49.44C595.684 49.44 596.37 49.6033 596.977 49.93C597.583 50.2567 598.055 50.7093 598.391 51.288C598.736 51.8667 598.909 52.5247 598.909 53.262C598.909 53.9993 598.736 54.662 598.391 55.25C598.055 55.8287 597.583 56.2813 596.977 56.608C596.37 56.9347 595.684 57.098 594.919 57.098ZM594.919 55.6C595.563 55.6 596.095 55.3853 596.515 54.956C596.935 54.5267 597.145 53.962 597.145 53.262C597.145 52.562 596.935 51.9973 596.515 51.568C596.095 51.1387 595.563 50.924 594.919 50.924C594.275 50.924 593.743 51.1387 593.323 51.568C592.912 51.9973 592.707 52.562 592.707 53.262C592.707 53.962 592.912 54.5267 593.323 54.956C593.743 55.3853 594.275 55.6 594.919 55.6ZM605.024 49.44C605.967 49.44 606.723 49.7153 607.292 50.266C607.861 50.8167 608.146 51.6333 608.146 52.716V57H606.396V52.94C606.396 52.2867 606.242 51.7967 605.934 51.47C605.626 51.134 605.187 50.966 604.618 50.966C603.974 50.966 603.465 51.162 603.092 51.554C602.719 51.9367 602.532 52.492 602.532 53.22V57H600.782V49.524H602.448V50.49C602.737 50.1447 603.101 49.8833 603.54 49.706C603.979 49.5287 604.473 49.44 605.024 49.44ZM615.06 56.594C614.855 56.762 614.603 56.888 614.304 56.972C614.015 57.056 613.707 57.098 613.38 57.098C612.559 57.098 611.924 56.8833 611.476 56.454C611.028 56.0247 610.804 55.3993 610.804 54.578V50.98H609.572V49.58H610.804V47.872H612.554V49.58H614.556V50.98H612.554V54.536C612.554 54.9 612.643 55.18 612.82 55.376C612.997 55.5627 613.254 55.656 613.59 55.656C613.982 55.656 614.309 55.5533 614.57 55.348L615.06 56.594ZM619.556 49.44C620.657 49.44 621.497 49.706 622.076 50.238C622.664 50.7607 622.958 51.554 622.958 52.618V57H621.306V56.09C621.091 56.4167 620.783 56.6687 620.382 56.846C619.99 57.014 619.514 57.098 618.954 57.098C618.394 57.098 617.904 57.0047 617.484 56.818C617.064 56.622 616.737 56.356 616.504 56.02C616.28 55.6747 616.168 55.2873 616.168 54.858C616.168 54.186 616.415 53.6493 616.91 53.248C617.414 52.8373 618.202 52.632 619.276 52.632H621.208V52.52C621.208 51.9973 621.049 51.596 620.732 51.316C620.424 51.036 619.962 50.896 619.346 50.896C618.926 50.896 618.51 50.9613 618.1 51.092C617.698 51.2227 617.358 51.4047 617.078 51.638L616.392 50.364C616.784 50.0653 617.255 49.8367 617.806 49.678C618.356 49.5193 618.94 49.44 619.556 49.44ZM619.318 55.824C619.756 55.824 620.144 55.726 620.48 55.53C620.825 55.3247 621.068 55.0353 621.208 54.662V53.794H619.402C618.394 53.794 617.89 54.1253 617.89 54.788C617.89 55.1053 618.016 55.3573 618.268 55.544C618.52 55.7307 618.87 55.824 619.318 55.824ZM628.902 57.098C628.127 57.098 627.432 56.9347 626.816 56.608C626.2 56.2813 625.719 55.8287 625.374 55.25C625.028 54.662 624.856 53.9993 624.856 53.262C624.856 52.5247 625.028 51.8667 625.374 51.288C625.719 50.7093 626.195 50.2567 626.802 49.93C627.418 49.6033 628.118 49.44 628.902 49.44C629.639 49.44 630.283 49.5893 630.834 49.888C631.394 50.1867 631.814 50.616 632.094 51.176L630.75 51.96C630.535 51.6147 630.264 51.358 629.938 51.19C629.62 51.0127 629.27 50.924 628.888 50.924C628.234 50.924 627.693 51.1387 627.264 51.568C626.834 51.988 626.62 52.5527 626.62 53.262C626.62 53.9713 626.83 54.5407 627.25 54.97C627.679 55.39 628.225 55.6 628.888 55.6C629.27 55.6 629.62 55.516 629.938 55.348C630.264 55.1707 630.535 54.9093 630.75 54.564L632.094 55.348C631.804 55.908 631.38 56.342 630.82 56.65C630.269 56.9487 629.63 57.098 628.902 57.098ZM638.396 56.594C638.191 56.762 637.939 56.888 637.64 56.972C637.351 57.056 637.043 57.098 636.716 57.098C635.895 57.098 635.26 56.8833 634.812 56.454C634.364 56.0247 634.14 55.3993 634.14 54.578V50.98H632.908V49.58H634.14V47.872H635.89V49.58H637.892V50.98H635.89V54.536C635.89 54.9 635.979 55.18 636.156 55.376C636.334 55.5627 636.59 55.656 636.926 55.656C637.318 55.656 637.645 55.5533 637.906 55.348L638.396 56.594Z" fill="#737373"/>
<defs>
<clipPath id="clip0_964_18523">
<rect width="90" height="58" fill="white" transform="translate(136 23)"/>
</clipPath>
</defs>
</svg>
